<svg height="50" preserveAspectRatio="xMidYMid meet" viewBox="0 0 37.5 37.499999" width="50" xmlns="http://www.w3.org/2000/svg" xmlns:xlink="http://www.w3.org/1999/xlink" zoomAndPan="magnify"><clipPath id="a"><path d="m7 0h3v37.007812h-3zm0 0"/></clipPath><clipPath id="b"><path d="m0 0h37.007812v36h-37.007812zm0 0"/></clipPath><clipPath id="c"><path d="m14 0h4v37.007812h-4zm0 0"/></clipPath><clipPath id="d"><path d="m1 2h35v35.007812h-35zm0 0"/></clipPath><clipPath id="e"><path d="m3 0h34.007812v35h-34.007812zm0 0"/></clipPath><clipPath id="f"><path d="m7 3h30.007812v34.007812h-30.007812zm0 0"/></clipPath><g clip-path="url(#a)"><path d="m-.00030671.00044058h17.06598671" fill="none" stroke="#fff" transform="matrix(0 -2.241758 2.25 0 8.725571 37.702437)"/></g><g clip-path="url(#b)"><path d="m.00063963-.00020682 12.87434537-.00048727" fill="none" stroke="#fff" transform="matrix(1.320828 -1.849559 1.831034 1.307599 8.632346 22.751453)"/></g><g clip-path="url(#c)"><path d="m.00058292-.00059871h16.85761008" fill="none" stroke="#fff" transform="matrix(0 -2.269468 2.25 0 16.013066 37.927104)"/></g><g clip-path="url(#d)"><path d="m.00052161.00093663 11.15734739-.00154193" fill="none" stroke="#fff" transform="matrix(-.774152 -2.079032 2.034393 -.757531 22.842248 37.728356)"/></g><g clip-path="url(#e)"><path d="m-.00050629-.00025432 12.35458729-.00023818" fill="none" stroke="#fff" transform="matrix(1.296998 -1.835073 1.837398 1.298641 16.44253 21.311901)"/></g><g clip-path="url(#f)"><path d="m.00083652-.00047449 10.61546748.00083585" fill="none" stroke="#fff" transform="matrix(-.948438 -2.052503 2.042481 -.943807 30.55645 37.930957)"/></g></svg>