<svg xmlns="http://www.w3.org/2000/svg" xmlns:xlink="http://www.w3.org/1999/xlink" width="150" zoomAndPan="magnify" viewBox="0 0 112.5 112.499997" height="150" preserveAspectRatio="xMidYMid meet" version="1.0"><defs><clipPath id="id1"><path d="M 0 0 L 112.003906 0 L 112.003906 112.003906 L 0 112.003906 Z M 0 0 " clip-rule="nonzero"/></clipPath><clipPath id="id2"><path d="M 22 0 L 30 0 L 30 112.003906 L 22 112.003906 Z M 22 0 " clip-rule="nonzero"/></clipPath><clipPath id="id3"><path d="M 0 0 L 112.003906 0 L 112.003906 107 L 0 107 Z M 0 0 " clip-rule="nonzero"/></clipPath><clipPath id="id4"><path d="M 44 0 L 52 0 L 52 112.003906 L 44 112.003906 Z M 44 0 " clip-rule="nonzero"/></clipPath><clipPath id="id5"><path d="M 2 4 L 110 4 L 110 112.003906 L 2 112.003906 Z M 2 4 " clip-rule="nonzero"/></clipPath><clipPath id="id6"><path d="M 11 0 L 112.003906 0 L 112.003906 103 L 11 103 Z M 11 0 " clip-rule="nonzero"/></clipPath><clipPath id="id7"><path d="M 23 10 L 112.003906 10 L 112.003906 112.003906 L 23 112.003906 Z M 23 10 " clip-rule="nonzero"/></clipPath></defs><g clip-path="url(#id1)"><path fill="rgb(100%, 100%, 100%)" d="M 0 0 L 112.5 0 L 112.5 120 L 0 120 Z M 0 0 " fill-opacity="1" fill-rule="nonzero"/><path fill="rgb(100%, 100%, 100%)" d="M 0 0 L 112.5 0 L 112.5 112.5 L 0 112.5 Z M 0 0 " fill-opacity="1" fill-rule="nonzero"/><path fill="rgb(100%, 100%, 100%)" d="M 0 0 L 112.5 0 L 112.5 112.5 L 0 112.5 Z M 0 0 " fill-opacity="1" fill-rule="nonzero"/><path fill="rgb(100%, 100%, 100%)" d="M 0 0 L 112.5 0 L 112.5 112.5 L 0 112.5 Z M 0 0 " fill-opacity="1" fill-rule="nonzero"/></g><g clip-path="url(#id2)"><path stroke-linecap="butt" transform="matrix(0.000000000000000414, -6.768541, 6.75, 0.000000000000000413, 26.182577, 113.113165)" fill="none" stroke-linejoin="miter" d="M -0.0000171959 0.00015065 L 17.065376 0.00015065 " stroke="rgb(100%, 100%, 100%)" stroke-width="1" stroke-opacity="1" stroke-miterlimit="4"/></g><g clip-path="url(#id3)"><path stroke-linecap="butt" transform="matrix(3.927558, -5.499769, 5.493102, 3.922796, 25.901948, 68.2639)" fill="none" stroke-linejoin="miter" d="M -0.000173613 0.000196229 L 12.875107 -0.000168237 " stroke="rgb(100%, 100%, 100%)" stroke-width="1" stroke-opacity="1" stroke-miterlimit="4"/></g><g clip-path="url(#id4)"><path stroke-linecap="butt" transform="matrix(0.000000000000000414, -6.762512, 6.75, 0.000000000000000413, 48.050923, 113.793037)" fill="none" stroke-linejoin="miter" d="M 0.0000100568 -0.0000210517 L 16.858806 -0.0000210517 " stroke="rgb(100%, 100%, 100%)" stroke-width="1" stroke-opacity="1" stroke-miterlimit="4"/></g><g clip-path="url(#id5)"><path stroke-linecap="butt" transform="matrix(-2.345916, -6.300097, 6.758668, -2.516671, 68.843505, 113.078834)" fill="none" stroke-linejoin="miter" d="M 0.0000861429 0.0000661721 L 11.157599 -0.000109645 " stroke="rgb(100%, 100%, 100%)" stroke-width="1" stroke-opacity="1" stroke-miterlimit="4"/></g><g clip-path="url(#id6)"><path stroke-linecap="butt" transform="matrix(3.889901, -5.503671, 5.512193, 3.895924, 49.332554, 63.945275)" fill="none" stroke-linejoin="miter" d="M -0.0000493211 -0.000059944 L 12.35336 0.000148676 " stroke="rgb(100%, 100%, 100%)" stroke-width="1" stroke-opacity="1" stroke-miterlimit="4"/></g><g clip-path="url(#id7)"><path stroke-linecap="butt" transform="matrix(-2.845314, -6.157508, 6.127442, -2.831421, 91.669358, 113.792877)" fill="none" stroke-linejoin="miter" d="M 0.000073604 -0.000192587 L 10.615782 0.00011767 " stroke="rgb(100%, 100%, 100%)" stroke-width="1" stroke-opacity="1" stroke-miterlimit="4"/></g></svg>