<svg xmlns="http://www.w3.org/2000/svg" xmlns:xlink="http://www.w3.org/1999/xlink" width="200" zoomAndPan="magnify" viewBox="0 0 150 37.5" height="50" preserveAspectRatio="xMidYMid meet" version="1.0"><defs><g/><clipPath id="id1"><path d="M 0.988281 2 L 20 2 L 20 29 L 0.988281 29 Z M 0.988281 2 " clip-rule="nonzero"/></clipPath><clipPath id="id2"><path d="M 0.988281 8 L 21 8 L 21 35 L 0.988281 35 Z M 0.988281 8 " clip-rule="nonzero"/></clipPath><clipPath id="id3"><path d="M 0.988281 1 L 23 1 L 23 28 L 0.988281 28 Z M 0.988281 1 " clip-rule="nonzero"/></clipPath></defs><path stroke-linecap="butt" transform="matrix(0.000000000000000091, -1.481315, 1.480263, 0.000000000000000091, 5.425201, 26.695613)" fill="none" stroke-linejoin="miter" d="M 0.000203184 0.000392045 L 10.996555 0.000392045 " stroke="rgb(100%, 100%, 100%)" stroke-width="1" stroke-opacity="1" stroke-miterlimit="4"/><g clip-path="url(#id1)"><path stroke-linecap="butt" transform="matrix(0.785675, -1.216999, 1.243621, 0.802861, 5.383303, 19.956645)" fill="none" stroke-linejoin="miter" d="M -0.000407471 -0.000137052 L 7.670951 -0.0000143914 " stroke="rgb(100%, 100%, 100%)" stroke-width="1" stroke-opacity="1" stroke-miterlimit="4"/></g><path stroke-linecap="butt" transform="matrix(0.00000000000000009, -1.462604, 1.480263, 0.000000000000000091, 8.712532, 26.799694)" fill="none" stroke-linejoin="miter" d="M -0.000743059 -0.00107687 L 11.133616 -0.00107687 " stroke="rgb(100%, 100%, 100%)" stroke-width="1" stroke-opacity="1" stroke-miterlimit="4"/><g clip-path="url(#id2)"><path stroke-linecap="butt" transform="matrix(-0.507038, -1.361681, 1.387213, -0.516545, 11.820483, 26.696024)" fill="none" stroke-linejoin="miter" d="M 0.000499737 0.0000594492 L 7.642732 -0.00000877188 " stroke="rgb(100%, 100%, 100%)" stroke-width="1" stroke-opacity="1" stroke-miterlimit="4"/></g><g clip-path="url(#id3)"><path stroke-linecap="butt" transform="matrix(0.755913, -1.280418, 1.274702, 0.752538, 8.903442, 19.308053)" fill="none" stroke-linejoin="miter" d="M -0.000688789 -0.000452856 L 6.973923 0.000520178 " stroke="rgb(100%, 100%, 100%)" stroke-width="1" stroke-opacity="1" stroke-miterlimit="4"/></g><path stroke-linecap="butt" transform="matrix(-0.56924, -1.346966, 1.363503, -0.576228, 14.830891, 26.6937)" fill="none" stroke-linejoin="miter" d="M -0.00131933 0.000285696 L 7.092477 -0.000439824 " stroke="rgb(100%, 100%, 100%)" stroke-width="1" stroke-opacity="1" stroke-miterlimit="4"/><g fill="rgb(100%, 100%, 100%)" fill-opacity="1"><g transform="translate(20.282303, 25.164474)"><g><path d="M 12.566406 -12.921875 C 12.132812 -11.632812 11.3125 -9.945312 10.636719 -8.867188 L 11.921875 -8.367188 C 12.597656 -9.363281 13.453125 -10.957031 14.128906 -12.359375 Z M 5.40625 -8.867188 C 5.132812 -9.945312 4.3125 -11.554688 3.523438 -12.757812 L 2.171875 -12.261719 C 2.929688 -11.007812 3.699219 -9.332031 3.957031 -8.300781 Z M 11.472656 -0.175781 C 10.894531 -0.175781 10.796875 -0.289062 10.796875 -0.820312 L 10.796875 -6.097656 L 15.207031 -6.097656 L 15.207031 -7.53125 L 8.753906 -7.53125 L 8.753906 -13.5 L 7.242188 -13.5 L 7.242188 -7.53125 L 0.917969 -7.53125 L 0.917969 -6.097656 L 5.035156 -6.097656 C 4.777344 -3.25 4.246094 -1.140625 0.546875 -0.015625 C 0.886719 0.273438 1.320312 0.886719 1.480469 1.269531 C 5.566406 -0.0820312 6.324219 -2.671875 6.628906 -6.097656 L 9.285156 -6.097656 L 9.285156 -0.820312 C 9.285156 0.757812 9.703125 1.222656 11.28125 1.222656 L 13.417969 1.222656 C 14.867188 1.222656 15.253906 0.515625 15.429688 -2.15625 C 15.011719 -2.269531 14.367188 -2.542969 14.046875 -2.800781 C 13.964844 -0.546875 13.886719 -0.175781 13.289062 -0.175781 Z M 11.472656 -0.175781 "/></g></g></g><g fill="rgb(100%, 100%, 100%)" fill-opacity="1"><g transform="translate(36.368679, 25.164474)"><g><path d="M 8.269531 -11.875 L 13.902344 -11.875 L 13.902344 -10.507812 L 15.207031 -10.507812 L 15.207031 -13.050781 L 7 -13.050781 L 7 -10.507812 L 8.269531 -10.507812 Z M 5.617188 -12.453125 C 5.40625 -11.34375 4.972656 -9.71875 4.601562 -8.722656 L 5.582031 -8.414062 C 5.984375 -9.378906 6.46875 -10.894531 6.855469 -12.164062 Z M 2.671875 -8.6875 C 2.605469 -9.703125 2.285156 -11.214844 1.867188 -12.375 L 0.835938 -12.148438 C 1.238281 -10.957031 1.527344 -9.429688 1.578125 -8.414062 Z M 8.703125 -4.183594 L 8.703125 -5.164062 L 10.378906 -5.164062 L 10.378906 -4.183594 Z M 8.703125 -7.046875 L 10.378906 -7.046875 L 10.378906 -6.082031 L 8.703125 -6.082031 Z M 13.484375 -7.046875 L 13.484375 -6.082031 L 11.746094 -6.082031 L 11.746094 -7.046875 Z M 13.484375 -4.183594 L 11.746094 -4.183594 L 11.746094 -5.164062 L 13.484375 -5.164062 Z M 15.398438 -2.21875 L 11.746094 -2.21875 L 11.746094 -3.203125 L 14.738281 -3.203125 L 14.738281 -8.011719 L 11.746094 -8.011719 L 11.746094 -8.996094 L 14.835938 -8.996094 L 14.835938 -10.167969 L 11.746094 -10.167969 L 11.746094 -11.359375 L 10.378906 -11.359375 L 10.378906 -10.167969 L 7.320312 -10.167969 L 7.320312 -8.996094 L 10.378906 -8.996094 L 10.378906 -8.011719 L 7.515625 -8.011719 L 7.515625 -3.203125 L 10.378906 -3.203125 L 10.378906 -2.21875 L 6.949219 -2.21875 L 6.804688 -3.007812 C 6.339844 -2.832031 5.871094 -2.65625 5.4375 -2.492188 L 5.4375 -6.613281 L 6.855469 -6.613281 L 6.855469 -7.996094 L 4.359375 -7.996094 L 4.359375 -13.355469 L 3.074219 -13.355469 L 3.074219 -7.996094 L 0.722656 -7.996094 L 0.722656 -6.613281 L 1.945312 -6.613281 C 1.898438 -3.570312 1.707031 -1.207031 0.546875 0.210938 C 0.902344 0.433594 1.320312 0.917969 1.496094 1.238281 C 2.863281 -0.433594 3.136719 -3.167969 3.203125 -6.613281 L 4.167969 -6.613281 L 4.167969 -2.027344 C 3.957031 -1.964844 3.75 -1.898438 3.570312 -1.835938 L 3.957031 -0.449219 C 4.84375 -0.835938 5.808594 -1.269531 6.757812 -1.707031 L 6.757812 -0.949219 L 10.378906 -0.949219 L 10.378906 1.253906 L 11.746094 1.253906 L 11.746094 -0.949219 L 15.398438 -0.949219 Z M 15.398438 -2.21875 "/></g></g></g><g fill="rgb(100%, 100%, 100%)" fill-opacity="1"><g transform="translate(52.455054, 25.164474)"><g><path d="M 10.78125 -11.167969 L 12.742188 -11.167969 L 12.742188 -10.25 L 10.78125 -10.25 Z M 12.742188 -8.109375 L 10.78125 -8.109375 L 10.78125 -9.074219 L 12.742188 -9.074219 Z M 9.316406 -8.109375 L 6.097656 -8.109375 L 6.097656 -6.933594 L 9.316406 -6.933594 L 9.316406 -5.96875 L 6 -5.96875 L 6 -4.84375 L 9.316406 -4.84375 L 9.316406 -3.8125 L 5.292969 -3.8125 L 5.292969 -2.605469 L 9.316406 -2.605469 L 9.316406 -1.09375 L 10.78125 -1.09375 L 10.78125 -2.605469 L 15.0625 -2.605469 L 15.0625 -3.8125 L 10.78125 -3.8125 L 10.78125 -4.84375 L 14.351562 -4.84375 L 14.351562 -5.96875 L 10.78125 -5.96875 L 10.78125 -6.933594 L 14.207031 -6.933594 L 14.207031 -9.074219 L 15.414062 -9.074219 L 15.414062 -10.25 L 14.207031 -10.25 L 14.207031 -12.339844 L 10.78125 -12.339844 L 10.78125 -13.371094 L 9.316406 -13.371094 L 9.316406 -12.339844 L 6.195312 -12.339844 L 6.195312 -11.167969 L 9.316406 -11.167969 L 9.316406 -10.25 L 5.085938 -10.25 L 5.085938 -9.074219 L 9.316406 -9.074219 Z M 4.632812 -8.0625 L 4.394531 -8.011719 L 3.089844 -8.011719 C 3.796875 -9.507812 4.519531 -11.085938 5.019531 -12.324219 L 3.992188 -12.597656 L 3.765625 -12.535156 L 0.691406 -12.535156 L 0.691406 -11.230469 L 3.074219 -11.230469 C 2.445312 -9.832031 1.578125 -7.964844 0.820312 -6.515625 L 2.171875 -6.148438 L 2.445312 -6.710938 L 3.992188 -6.710938 C 3.828125 -5.472656 3.570312 -4.375 3.234375 -3.425781 C 2.847656 -4.023438 2.527344 -4.730469 2.269531 -5.582031 L 1.09375 -5.164062 C 1.496094 -3.878906 2.011719 -2.847656 2.605469 -2.042969 C 2.058594 -1.046875 1.367188 -0.289062 0.546875 0.273438 C 0.886719 0.484375 1.449219 1.015625 1.691406 1.304688 C 2.445312 0.757812 3.089844 0.015625 3.636719 -0.933594 C 5.324219 0.5 7.578125 0.851562 10.394531 0.851562 L 14.964844 0.851562 C 15.0625 0.417969 15.316406 -0.257812 15.542969 -0.59375 C 14.578125 -0.5625 11.214844 -0.5625 10.425781 -0.5625 C 7.917969 -0.578125 5.808594 -0.867188 4.265625 -2.21875 C 4.890625 -3.699219 5.308594 -5.566406 5.519531 -7.851562 Z M 4.632812 -8.0625 "/></g></g></g><g fill="rgb(100%, 100%, 100%)" fill-opacity="1"><g transform="translate(68.54143, 25.164474)"><g><path d="M 6.226562 -8.65625 L 1.398438 -8.65625 L 1.398438 -7.5 L 6.226562 -7.5 L 6.226562 -7.707031 C 6.546875 -7.515625 7.097656 -7.015625 7.304688 -6.757812 C 8.996094 -7.882812 9.332031 -9.636719 9.332031 -11.085938 L 9.332031 -11.683594 L 11.648438 -11.683594 L 11.648438 -9.21875 C 11.648438 -7.902344 11.988281 -7.53125 13.097656 -7.53125 L 14.128906 -7.53125 C 15.0625 -7.53125 15.429688 -8.027344 15.527344 -9.945312 C 15.15625 -10.023438 14.59375 -10.25 14.304688 -10.492188 C 14.273438 -9.011719 14.207031 -8.800781 13.964844 -8.800781 L 13.339844 -8.800781 C 13.113281 -8.800781 13.082031 -8.867188 13.082031 -9.234375 L 13.082031 -13.015625 L 7.917969 -13.015625 L 7.917969 -11.101562 C 7.917969 -9.992188 7.691406 -8.722656 6.226562 -7.738281 Z M 1.398438 -5.34375 L 6.226562 -5.34375 L 6.226562 -6.515625 L 1.398438 -6.515625 Z M 6.179688 -12.96875 L 1.464844 -12.96875 L 1.464844 -11.792969 L 6.179688 -11.792969 Z M 6.789062 -10.84375 L 0.644531 -10.84375 L 0.644531 -9.652344 L 6.789062 -9.652344 Z M 4.90625 -3.136719 L 4.90625 -0.820312 L 2.65625 -0.820312 L 2.65625 -3.136719 Z M 6.210938 -4.34375 L 1.367188 -4.34375 L 1.367188 1.0625 L 2.65625 1.0625 L 2.65625 0.386719 L 6.210938 0.386719 Z M 13.675781 -6.675781 L 13.402344 -6.628906 L 6.984375 -6.628906 L 6.984375 -5.261719 L 12.742188 -5.261719 C 12.308594 -4.214844 11.683594 -3.316406 10.894531 -2.558594 C 10.105469 -3.332031 9.476562 -4.246094 9.042969 -5.246094 L 7.707031 -4.828125 C 8.238281 -3.621094 8.945312 -2.558594 9.800781 -1.640625 C 8.738281 -0.917969 7.53125 -0.386719 6.226562 -0.0625 C 6.515625 0.257812 6.886719 0.886719 7.03125 1.253906 C 8.464844 0.835938 9.765625 0.226562 10.910156 -0.628906 C 11.957031 0.210938 13.195312 0.835938 14.59375 1.253906 C 14.804688 0.867188 15.238281 0.257812 15.558594 -0.03125 C 14.222656 -0.371094 13.050781 -0.902344 12.035156 -1.609375 C 13.210938 -2.800781 14.113281 -4.34375 14.640625 -6.308594 Z M 13.675781 -6.675781 "/></g></g></g><g fill="rgb(100%, 100%, 100%)" fill-opacity="1"><g transform="translate(84.627806, 25.164474)"><g><path d="M 6.46875 -5.582031 C 6.179688 -6.050781 4.957031 -7.980469 4.519531 -8.578125 L 4.519531 -9.074219 L 6.46875 -9.074219 L 6.46875 -10.457031 L 4.519531 -10.457031 L 4.519531 -13.484375 L 3.058594 -13.484375 L 3.058594 -10.457031 L 0.867188 -10.457031 L 0.867188 -9.074219 L 2.945312 -9.074219 C 2.476562 -7 1.527344 -4.585938 0.515625 -3.316406 C 0.773438 -2.914062 1.109375 -2.253906 1.253906 -1.816406 C 1.914062 -2.785156 2.558594 -4.246094 3.058594 -5.824219 L 3.058594 1.269531 L 4.519531 1.269531 L 4.519531 -6.726562 C 4.921875 -5.921875 5.375 -5.050781 5.582031 -4.539062 Z M 15.285156 -5.324219 L 15.285156 -6.695312 L 11.730469 -6.695312 L 11.730469 -9.234375 L 14.804688 -9.234375 L 14.804688 -10.605469 L 11.730469 -10.605469 L 11.730469 -13.484375 L 10.265625 -13.484375 L 10.265625 -10.605469 L 8.882812 -10.605469 C 9.027344 -11.214844 9.15625 -11.84375 9.253906 -12.503906 L 7.867188 -12.726562 C 7.609375 -10.859375 7.113281 -9.011719 6.292969 -7.820312 C 6.613281 -7.660156 7.226562 -7.273438 7.480469 -7.0625 C 7.867188 -7.660156 8.207031 -8.398438 8.480469 -9.234375 L 10.265625 -9.234375 L 10.265625 -6.695312 L 6.582031 -6.695312 L 6.582031 -5.324219 L 9.492188 -5.324219 C 8.609375 -3.410156 7.144531 -1.609375 5.617188 -0.644531 C 5.9375 -0.371094 6.386719 0.144531 6.613281 0.515625 C 8.027344 -0.5 9.316406 -2.1875 10.265625 -4.070312 L 10.265625 1.269531 L 11.730469 1.269531 L 11.730469 -4.183594 C 12.503906 -2.398438 13.5625 -0.660156 14.640625 0.386719 C 14.898438 0 15.382812 -0.515625 15.738281 -0.789062 C 14.496094 -1.785156 13.273438 -3.539062 12.519531 -5.324219 Z M 15.285156 -5.324219 "/></g></g></g><g fill="rgb(100%, 100%, 100%)" fill-opacity="1"><g transform="translate(100.714182, 25.164474)"><g><path d="M 5.679688 -5.582031 L 8.496094 -5.582031 L 8.496094 -7.03125 L 1.511719 -7.03125 L 1.511719 -5.582031 L 4.183594 -5.582031 L 4.183594 -1.269531 C 2.960938 -1.046875 1.851562 -0.835938 0.980469 -0.691406 L 1.414062 0.820312 C 3.476562 0.371094 6.355469 -0.257812 9.027344 -0.867188 L 8.914062 -2.21875 C 7.835938 -1.996094 6.742188 -1.769531 5.679688 -1.578125 Z M 11.40625 -12.597656 C 12.195312 -12.035156 13.128906 -11.199219 13.582031 -10.636719 L 14.625 -11.570312 C 14.160156 -12.117188 13.179688 -12.90625 12.390625 -13.417969 Z M 15.1875 -9.171875 L 15.1875 -10.636719 L 10.570312 -10.636719 C 10.539062 -11.535156 10.523438 -12.484375 10.539062 -13.417969 L 8.929688 -13.417969 C 8.929688 -12.484375 8.960938 -11.554688 8.996094 -10.636719 L 0.933594 -10.636719 L 0.933594 -9.171875 L 9.089844 -9.171875 C 9.492188 -3.378906 10.765625 1.304688 13.417969 1.304688 C 14.753906 1.304688 15.285156 0.515625 15.542969 -2.382812 C 15.125 -2.527344 14.5625 -2.878906 14.222656 -3.234375 C 14.128906 -1.140625 13.933594 -0.273438 13.546875 -0.273438 C 12.148438 -0.273438 11.023438 -4.101562 10.667969 -9.171875 Z M 15.1875 -9.171875 "/></g></g></g><g fill="rgb(100%, 100%, 100%)" fill-opacity="1"><g transform="translate(116.800558, 25.164474)"><g><path d="M 4.570312 -8.625 C 6 -9.703125 7.226562 -10.910156 7.996094 -12.035156 C 8.851562 -10.859375 10.167969 -9.652344 11.617188 -8.625 Z M 4.265625 -7.242188 L 11.792969 -7.242188 L 11.792969 -8.496094 C 12.726562 -7.835938 13.710938 -7.273438 14.640625 -6.824219 C 14.898438 -7.273438 15.238281 -7.804688 15.589844 -8.175781 C 13.082031 -9.15625 10.410156 -11.117188 8.703125 -13.484375 L 7.160156 -13.484375 C 5.953125 -11.519531 3.332031 -9.203125 0.578125 -7.949219 C 0.902344 -7.625 1.304688 -7.0625 1.464844 -6.726562 C 2.429688 -7.191406 3.378906 -7.773438 4.265625 -8.398438 Z M 1.496094 -4.167969 L 5.488281 -4.167969 C 5.101562 -3.089844 4.519531 -1.800781 3.992188 -0.804688 L 1.609375 -0.722656 L 1.800781 0.738281 C 4.539062 0.628906 8.625 0.449219 12.453125 0.257812 C 12.742188 0.644531 12.984375 0.996094 13.160156 1.304688 L 14.53125 0.449219 C 13.789062 -0.738281 12.261719 -2.445312 10.796875 -3.683594 L 9.507812 -2.992188 C 10.136719 -2.429688 10.78125 -1.753906 11.375 -1.078125 C 9.414062 -0.996094 7.417969 -0.917969 5.632812 -0.851562 C 6.210938 -1.882812 6.804688 -3.089844 7.335938 -4.167969 L 14.707031 -4.167969 L 14.707031 -5.566406 L 1.496094 -5.566406 Z M 1.496094 -4.167969 "/></g></g></g><g fill="rgb(100%, 100%, 100%)" fill-opacity="1"><g transform="translate(132.886933, 25.164474)"><g><path d="M 7.515625 -4.457031 C 7.144531 -4.796875 5.808594 -5.953125 5.050781 -6.566406 C 5.855469 -7.625 6.566406 -8.800781 7.046875 -10.023438 L 6.210938 -10.585938 L 5.953125 -10.539062 L 4.84375 -10.539062 L 4.84375 -13.5 L 3.363281 -13.5 L 3.363281 -10.539062 L 0.933594 -10.539062 L 0.933594 -9.171875 L 5.148438 -9.171875 C 4.054688 -7.160156 2.203125 -5.292969 0.371094 -4.246094 C 0.59375 -3.957031 0.964844 -3.25 1.109375 -2.863281 C 1.867188 -3.347656 2.640625 -3.957031 3.363281 -4.667969 L 3.363281 1.269531 L 4.84375 1.269531 L 4.84375 -5.132812 C 5.503906 -4.472656 6.226562 -3.699219 6.597656 -3.234375 Z M 11.988281 -0.660156 L 11.988281 -6.96875 L 15.238281 -6.96875 L 15.238281 -8.414062 L 11.988281 -8.414062 L 11.988281 -13.371094 L 10.457031 -13.371094 L 10.457031 -8.414062 L 7.207031 -8.414062 L 7.207031 -6.96875 L 10.457031 -6.96875 L 10.457031 -0.660156 L 6.566406 -0.660156 L 6.566406 0.820312 L 15.574219 0.820312 L 15.574219 -0.660156 Z M 11.988281 -0.660156 "/></g></g></g></svg>